<?xml version="1.0" encoding="utf-8"?>
<!-- Generator: Adobe Illustrator 22.0.0, SVG Export Plug-In . SVG Version: 6.00 Build 0)  -->
<svg version="1.0" id="Capa_1" xmlns="http://www.w3.org/2000/svg" xmlns:xlink="http://www.w3.org/1999/xlink" x="0px" y="0px"
	 viewBox="0 0 160 30" style="enable-background:new 0 0 160 30;" xml:space="preserve">
<style type="text/css">
	.st0{fill:#BD0048;}
	.st1{fill-rule:evenodd;clip-rule:evenodd;fill:#BD0048;}
</style>
<polygon id="XMLID_14_" class="st0" points="5.6,28 2,28 2,23.5 2,13.1 2,7.7 16.1,7.7 22.3,7.7 22.3,18.6 22.3,28 18.5,28 
	18.5,12.2 5.6,12.2 5.6,23.5 5.6,28 "/>
<path id="XMLID_11_" class="st1" d="M43.9,23.5V12.2L31,23.5H43.9L43.9,23.5z M34.2,12.2h-3.1V7.7h10.4h6.2v10.9V28h-4H27.4v-2.3
	v-4.3l10.5-9.2H34.2L34.2,12.2z"/>
<polygon id="XMLID_10_" class="st0" points="69.3,7.7 69.3,23.5 56.4,12.2 56.4,7.7 52.8,7.7 52.8,10 52.8,14.5 68,28 73.1,28 
	73.1,17.1 73.1,7.7 69.3,7.7 "/>
<path id="XMLID_7_" class="st1" d="M94.7,23.5V12.2L81.8,23.5H94.7L94.7,23.5z M85,12.2h-3.1V7.7h10.4h6.2v10.9V28h-4H78.2v-2.3
	v-4.3l10.5-9.2H85L85,12.2z"/>
<polygon id="XMLID_6_" class="st0" points="120.1,23.5 123.8,23.5 123.8,28 119.8,28 103.5,28 103.5,23.5 103.5,13.1 103.5,7.7 
	103.5,2 107.2,2 107.2,7.7 116.4,7.7 116.4,12.2 107.2,12.2 107.2,23.5 120.1,23.5 "/>
<path id="XMLID_3_" class="st1" d="M132.5,28V12.1V7.7h-3.6V28H132.5L132.5,28z M132.5,5.6V2h-3.6v3.6H132.5L132.5,5.6z"/>
<polygon id="XMLID_2_" class="st0" points="154.2,23.5 158,23.5 158,28 154,28 137.7,28 137.7,23.5 137.7,13.1 137.7,7.7 151.8,7.7 
	158,7.7 158,12.2 141.3,12.2 141.3,23.5 154.2,23.5 "/>
</svg>
